<svg xmlns="http://www.w3.org/2000/svg" viewBox="0 0 1440 2342" width="1440" height="2342" font-family="system-ui, -apple-system, Segoe UI, Roboto, sans-serif">
  <defs>
    <marker id="ar" viewBox="0 0 10 10" refX="8.5" refY="5" markerWidth="7" markerHeight="7" orient="auto-start-reverse">
      <path d="M0,0 L10,5 L0,10 z" fill="#6c7086"/>
    </marker>
    <marker id="arb" viewBox="0 0 10 10" refX="8.5" refY="5" markerWidth="7" markerHeight="7" orient="auto-start-reverse">
      <path d="M0,0 L10,5 L0,10 z" fill="#89dceb"/>
    </marker>
    <marker id="arp" viewBox="0 0 10 10" refX="8.5" refY="5" markerWidth="7" markerHeight="7" orient="auto-start-reverse">
      <path d="M0,0 L10,5 L0,10 z" fill="#fab387"/>
    </marker>
    <marker id="arm" viewBox="0 0 10 10" refX="8.5" refY="5" markerWidth="7" markerHeight="7" orient="auto-start-reverse">
      <path d="M0,0 L10,5 L0,10 z" fill="#cba6f7"/>
    </marker>
    <linearGradient id="mv" x1="0" y1="0" x2="0" y2="1">
      <stop offset="0" stop-color="#cba6f7" stop-opacity="0.20"/>
      <stop offset="1" stop-color="#b4befe" stop-opacity="0.08"/>
    </linearGradient>
  </defs>

  <rect x="0" y="0" width="1440" height="2342" fill="#181825"/>

  <!-- HEADER -->
  <text x="48" y="58" font-size="30" font-weight="700" fill="#cdd6f4">loopkit — Interpretation &amp; Model</text>
  <text x="48" y="90" font-size="15" fill="#a6adc8">Current-state view of how it works — no status markers. Medium: committed SVG under docs/design/ (kind: concept).</text>

  <!-- A -->
  <text x="48" y="150" font-size="19" font-weight="700" fill="#b4befe">A · Lifecycle</text>
  <text x="48" y="174" font-size="11" fill="#a6adc8">Legend:  pill "loop-bar" = repeatable without an argument (/loop)   ·   "1× one-time" = Bootstrap   ·   dashed arrow = skill-in-skill (calls / delegates)   ·   diamond = human gate</text>

  <!-- project -->
  <rect x="48" y="330" width="140" height="80" rx="12" fill="#313244" stroke="#6c7086" stroke-width="1.5"/>
  <text x="118" y="366" font-size="14" font-weight="600" fill="#cdd6f4" text-anchor="middle">Project</text>
  <text x="118" y="386" font-size="11.5" fill="#a6adc8" text-anchor="middle">(empty / existing)</text>
  <line x1="188" y1="370" x2="226" y2="370" stroke="#6c7086" stroke-width="1.6" marker-end="url(#ar)"/>

  <!-- inception -->
  <rect x="230" y="330" width="180" height="80" rx="12" fill="#cba6f7" fill-opacity="0.16" stroke="#cba6f7" stroke-width="1.5"/>
  <rect x="284" y="336" width="72" height="16" rx="8" fill="#cba6f7" fill-opacity="0.20" stroke="#cba6f7" stroke-width="1"/>
  <text x="320" y="348" font-size="9.5" font-weight="600" fill="#cba6f7" text-anchor="middle">1× one-time</text>
  <text x="320" y="374" font-size="14" font-weight="600" fill="#cdd6f4" text-anchor="middle">/loopkit:inception</text>
  <text x="320" y="393" font-size="11" fill="#a6adc8" text-anchor="middle">Bootstrap</text>
  <text x="320" y="430" font-size="11" fill="#6c7086" text-anchor="middle">→ vision · constitution · architecture · roadmap</text>
  <text x="320" y="446" font-size="11" fill="#6c7086" text-anchor="middle">workflow · design · board · settings · CLAUDE.md</text>
  <text x="431" y="360" font-size="10" fill="#6c7086" text-anchor="middle">loop-ready</text>
  <line x1="410" y1="372" x2="452" y2="372" stroke="#6c7086" stroke-width="1.6" marker-end="url(#ar)"/>

  <!-- delegation arc roadmap -> inception -->
  <path d="M520,330 C 470,300 410,300 362,330" fill="none" stroke="#cba6f7" stroke-width="1.4" stroke-dasharray="5 4" marker-end="url(#arm)"/>
  <text x="441" y="296" font-size="9.5" font-weight="600" fill="#cba6f7" text-anchor="middle">delegates steps (DRY)</text>

  <!-- loop container -->
  <rect x="456" y="250" width="936" height="320" rx="18" fill="#ffffff" fill-opacity="0.02" stroke="#6c7086" stroke-width="1.5" stroke-dasharray="7 5"/>
  <text x="474" y="278" font-size="14" font-weight="700" fill="#b4befe">Iteration loop — per idea · roadmap seeds 1..n phases · plan plans 1..n milestones</text>

  <!-- roadmap -->
  <rect x="474" y="330" width="170" height="80" rx="12" fill="#89b4fa" fill-opacity="0.12" stroke="#89b4fa" stroke-width="1.5" stroke-dasharray="6 4"/>
  <rect x="580" y="336" width="58" height="16" rx="8" fill="#89dceb" fill-opacity="0.20" stroke="#89dceb" stroke-width="1"/>
  <text x="609" y="348" font-size="9.5" font-weight="600" fill="#89dceb" text-anchor="middle">loop-bar</text>
  <text x="551" y="376" font-size="13.5" font-weight="600" fill="#cdd6f4" text-anchor="middle">/loopkit:roadmap</text>
  <text x="551" y="395" font-size="10.5" fill="#a6adc8" text-anchor="middle">idea sparring</text>
  <line x1="644" y1="370" x2="676" y2="370" stroke="#6c7086" stroke-width="1.6" marker-end="url(#ar)"/>

  <!-- plan -->
  <rect x="680" y="330" width="155" height="80" rx="12" fill="#89b4fa" fill-opacity="0.14" stroke="#89b4fa" stroke-width="1.5"/>
  <rect x="742" y="336" width="58" height="16" rx="8" fill="#89dceb" fill-opacity="0.20" stroke="#89dceb" stroke-width="1"/>
  <text x="771" y="348" font-size="9.5" font-weight="600" fill="#89dceb" text-anchor="middle">loop-bar</text>
  <text x="748" y="376" font-size="13.5" font-weight="600" fill="#cdd6f4" text-anchor="middle">/loopkit:plan</text>
  <text x="748" y="395" font-size="10.5" fill="#a6adc8" text-anchor="middle">spec + issues</text>

  <!-- gate 1 -->
  <text x="895" y="308" font-size="10.5" font-weight="700" fill="#fab387" text-anchor="middle">spec-acceptance · gate</text>
  <text x="895" y="322" font-size="10" fill="#fab387" text-anchor="middle">design + foundation reviewed HERE</text>
  <line x1="835" y1="370" x2="865" y2="370" stroke="#6c7086" stroke-width="1.6" marker-end="url(#ar)"/>
  <polygon points="895,340 925,370 895,400 865,370" fill="#fab387" fill-opacity="0.18" stroke="#fab387" stroke-width="1.5"/>
  <line x1="925" y1="370" x2="957" y2="370" stroke="#6c7086" stroke-width="1.6" marker-end="url(#ar)"/>

  <!-- implement -->
  <rect x="961" y="330" width="185" height="80" rx="12" fill="#89b4fa" fill-opacity="0.14" stroke="#89b4fa" stroke-width="1.5"/>
  <rect x="1082" y="336" width="58" height="16" rx="8" fill="#89dceb" fill-opacity="0.20" stroke="#89dceb" stroke-width="1"/>
  <text x="1111" y="348" font-size="9.5" font-weight="600" fill="#89dceb" text-anchor="middle">loop-bar</text>
  <text x="1043" y="376" font-size="13.5" font-weight="600" fill="#cdd6f4" text-anchor="middle">/loopkit:implement</text>
  <text x="1043" y="395" font-size="10" fill="#a6adc8" text-anchor="middle">one milestone · execute only</text>
  <line x1="1146" y1="370" x2="1178" y2="370" stroke="#6c7086" stroke-width="1.6" marker-end="url(#ar)"/>

  <!-- gate 2 -->
  <text x="1208" y="308" font-size="10.5" font-weight="700" fill="#fab387" text-anchor="middle">milestone-QA · gate</text>
  <text x="1208" y="322" font-size="10" fill="#fab387" text-anchor="middle">(human)</text>
  <polygon points="1208,340 1238,370 1208,400 1178,370" fill="#fab387" fill-opacity="0.18" stroke="#fab387" stroke-width="1.5"/>

  <!-- merged + loop back -->
  <line x1="1208" y1="400" x2="1208" y2="430" stroke="#6c7086" stroke-width="1.6" marker-end="url(#ar)"/>
  <rect x="1148" y="430" width="120" height="44" rx="10" fill="#a6e3a1" fill-opacity="0.16" stroke="#a6e3a1" stroke-width="1.5"/>
  <text x="1208" y="457" font-size="12.5" font-weight="600" fill="#cdd6f4" text-anchor="middle">merged PRs → Done</text>
  <path d="M1208,474 L1208,548 Q1208,554 1202,554 L565,554 Q559,554 559,548 L559,412" fill="none" stroke="#89dceb" stroke-width="1.6" stroke-dasharray="5 4" marker-end="url(#arb)"/>
  <text x="890" y="550" font-size="10.5" font-weight="600" fill="#89dceb" text-anchor="middle">next idea</text>

  <!-- ship — human-invoked release phase; publishes merged work, decoupled from a single milestone (optional) -->
  <line x1="1268" y1="452" x2="1280" y2="452" stroke="#6c7086" stroke-width="1.6" marker-end="url(#ar)"/>
  <text x="1334" y="422" font-size="9.5" font-weight="600" fill="#a6e3a1" text-anchor="middle">human-invoked</text>
  <rect x="1284" y="430" width="100" height="44" rx="10" fill="#a6e3a1" fill-opacity="0.10" stroke="#a6e3a1" stroke-width="1.5"/>
  <text x="1334" y="450" font-size="11" font-weight="600" fill="#cdd6f4" text-anchor="middle">/loopkit:ship</text>
  <text x="1334" y="466" font-size="9" fill="#a6adc8" text-anchor="middle">release · optional</text>

  <!-- design node (used-within) -->
  <text x="700" y="450" font-size="10" font-weight="600" fill="#fab387" text-anchor="middle">optional · calls</text>
  <line x1="585" y1="410" x2="640" y2="470" stroke="#fab387" stroke-width="1.5" stroke-dasharray="5 4" marker-end="url(#arp)"/>
  <line x1="757" y1="410" x2="745" y2="470" stroke="#fab387" stroke-width="1.5" stroke-dasharray="5 4" marker-end="url(#arp)"/>
  <rect x="600" y="474" width="200" height="54" rx="12" fill="#fab387" fill-opacity="0.07" stroke="#fab387" stroke-width="1.5" stroke-dasharray="6 4"/>
  <text x="700" y="498" font-size="13" font-weight="600" fill="#cdd6f4" text-anchor="middle">/loopkit:design</text>
  <text x="700" y="516" font-size="10" fill="#a6adc8" text-anchor="middle">optional · used-within (UI + concept)</text>

  <!-- foundation note -->
  <text x="456" y="594" font-size="12.5" font-weight="600" fill="#fab387">Foundation edits (vision · constitution · architecture — e.g. React→Vue): drafted in roadmap/plan, ratified at the spec-acceptance gate — NEVER in implement.</text>

  <!-- fast lane -->
  <rect x="456" y="614" width="936" height="72" rx="14" fill="#94e2d5" fill-opacity="0.06" stroke="#94e2d5" stroke-width="1.5" stroke-dasharray="7 5"/>
  <text x="474" y="636" font-size="12" font-weight="700" fill="#94e2d5">Fast-lane · track:adhoc — skips roadmap + plan</text>
  <rect x="474" y="650" width="100" height="30" rx="8" fill="#313244" stroke="#6c7086" stroke-width="1.4"/>
  <text x="524" y="670" font-size="12" fill="#cdd6f4" text-anchor="middle">Bug / QoL</text>
  <line x1="574" y1="665" x2="602" y2="665" stroke="#6c7086" stroke-width="1.6" marker-end="url(#ar)"/>
  <rect x="606" y="650" width="140" height="30" rx="8" fill="#94e2d5" fill-opacity="0.10" stroke="#94e2d5" stroke-width="1.4"/>
  <text x="676" y="670" font-size="12" fill="#cdd6f4" text-anchor="middle">track:adhoc issue</text>
  <line x1="746" y1="665" x2="774" y2="665" stroke="#6c7086" stroke-width="1.6" marker-end="url(#ar)"/>
  <rect x="778" y="650" width="210" height="30" rx="8" fill="#89b4fa" fill-opacity="0.14" stroke="#89b4fa" stroke-width="1.4"/>
  <text x="883" y="670" font-size="12" fill="#cdd6f4" text-anchor="middle">/loopkit:implement (direct)</text>
  <line x1="988" y1="665" x2="1016" y2="665" stroke="#6c7086" stroke-width="1.6" marker-end="url(#ar)"/>
  <rect x="1020" y="650" width="100" height="30" rx="8" fill="#a6e3a1" fill-opacity="0.16" stroke="#a6e3a1" stroke-width="1.4"/>
  <text x="1070" y="670" font-size="12" fill="#cdd6f4" text-anchor="middle">PR → merge</text>

  <!-- state strip -->
  <rect x="48" y="704" width="1344" height="40" rx="10" fill="#a6e3a1" fill-opacity="0.12" stroke="#a6e3a1" stroke-width="1.5"/>
  <text x="720" y="729" font-size="13" font-weight="600" fill="#cdd6f4" text-anchor="middle">Durable state: GitHub issues · milestones · project board · PRs — no local DB/JSON/daemon</text>

  <!-- B -->
  <text x="48" y="782" font-size="19" font-weight="700" fill="#b4befe">B · Skills — loop-bar &amp; skill-in-skill</text>

  <!-- card 1 inception -->
  <rect x="48" y="806" width="256" height="162" rx="12" fill="#1e1e2e" stroke="#313244" stroke-width="1.2"/>
  <rect x="48" y="806" width="256" height="4" rx="2" fill="#cba6f7"/>
  <text x="64" y="838" font-size="14" font-weight="700" fill="#cba6f7">/loopkit:inception</text>
  <text x="64" y="858" font-size="11.5" fill="#a6adc8">Bootstrap</text>
  <rect x="64" y="870" width="80" height="17" rx="8" fill="#cba6f7" fill-opacity="0.18" stroke="#cba6f7" stroke-width="1"/>
  <text x="104" y="882" font-size="10" font-weight="600" fill="#cba6f7" text-anchor="middle">1× one-time</text>
  <text x="64" y="912" font-size="11.5" fill="#cdd6f4">uses · —</text>
  <text x="64" y="938" font-size="11.5" fill="#cdd6f4">gate · dialog</text>

  <!-- card 2 roadmap -->
  <rect x="320" y="806" width="256" height="162" rx="12" fill="#1e1e2e" stroke="#89b4fa" stroke-width="1.2" stroke-dasharray="6 4"/>
  <rect x="320" y="806" width="256" height="4" rx="2" fill="#89b4fa"/>
  <text x="336" y="838" font-size="14" font-weight="700" fill="#89b4fa">/loopkit:roadmap</text>
  <text x="336" y="858" font-size="11.5" fill="#a6adc8">idea sparring + design</text>
  <rect x="336" y="870" width="66" height="17" rx="8" fill="#89dceb" fill-opacity="0.18" stroke="#89dceb" stroke-width="1"/>
  <text x="369" y="882" font-size="10" font-weight="600" fill="#89dceb" text-anchor="middle">loop-bar</text>
  <text x="336" y="912" font-size="11.5" fill="#cdd6f4">uses · inception steps · design</text>
  <text x="336" y="938" font-size="11.5" fill="#cdd6f4">gate · — (sparring)</text>

  <!-- card 3 plan -->
  <rect x="592" y="806" width="256" height="162" rx="12" fill="#1e1e2e" stroke="#313244" stroke-width="1.2"/>
  <rect x="592" y="806" width="256" height="4" rx="2" fill="#89b4fa"/>
  <text x="608" y="838" font-size="14" font-weight="700" fill="#89b4fa">/loopkit:plan</text>
  <text x="608" y="858" font-size="11.5" fill="#a6adc8">producer</text>
  <rect x="608" y="870" width="66" height="17" rx="8" fill="#89dceb" fill-opacity="0.18" stroke="#89dceb" stroke-width="1"/>
  <text x="641" y="882" font-size="10" font-weight="600" fill="#89dceb" text-anchor="middle">loop-bar</text>
  <text x="608" y="912" font-size="11.5" fill="#cdd6f4">uses · design (optional)</text>
  <text x="608" y="938" font-size="11.5" fill="#cdd6f4">gate · spec-acceptance</text>

  <!-- card 4 implement -->
  <rect x="864" y="806" width="256" height="162" rx="12" fill="#1e1e2e" stroke="#313244" stroke-width="1.2"/>
  <rect x="864" y="806" width="256" height="4" rx="2" fill="#89b4fa"/>
  <text x="880" y="838" font-size="14" font-weight="700" fill="#89b4fa">/loopkit:implement</text>
  <text x="880" y="858" font-size="11.5" fill="#a6adc8">orchestrator</text>
  <rect x="880" y="870" width="66" height="17" rx="8" fill="#89dceb" fill-opacity="0.18" stroke="#89dceb" stroke-width="1"/>
  <text x="913" y="882" font-size="10" font-weight="600" fill="#89dceb" text-anchor="middle">loop-bar</text>
  <text x="880" y="912" font-size="11.5" fill="#cdd6f4">uses · subagents (in-session)</text>
  <text x="880" y="938" font-size="11.5" fill="#cdd6f4">gate · milestone-QA</text>

  <!-- card 5 design -->
  <rect x="1136" y="806" width="256" height="162" rx="12" fill="#1e1e2e" stroke="#313244" stroke-width="1.2"/>
  <rect x="1136" y="806" width="256" height="4" rx="2" fill="#fab387"/>
  <text x="1152" y="838" font-size="14" font-weight="700" fill="#fab387">/loopkit:design</text>
  <text x="1152" y="858" font-size="11.5" fill="#a6adc8">optional · UI + concept</text>
  <rect x="1152" y="870" width="86" height="17" rx="8" fill="#fab387" fill-opacity="0.18" stroke="#fab387" stroke-width="1"/>
  <text x="1195" y="882" font-size="10" font-weight="600" fill="#fab387" text-anchor="middle">used-within</text>
  <text x="1152" y="912" font-size="11.5" fill="#cdd6f4">uses · — (from roadmap/plan)</text>
  <text x="1152" y="938" font-size="11.5" fill="#cdd6f4">gate · at spec-acceptance</text>

  <!-- card 6 ship -->
  <rect x="592" y="988" width="256" height="162" rx="12" fill="#1e1e2e" stroke="#313244" stroke-width="1.2"/>
  <rect x="592" y="988" width="256" height="4" rx="2" fill="#a6e3a1"/>
  <text x="608" y="1020" font-size="14" font-weight="700" fill="#a6e3a1">/loopkit:ship</text>
  <text x="608" y="1040" font-size="11.5" fill="#a6adc8">release phase</text>
  <rect x="608" y="1052" width="100" height="17" rx="8" fill="#a6e3a1" fill-opacity="0.18" stroke="#a6e3a1" stroke-width="1"/>
  <text x="658" y="1064" font-size="10" font-weight="600" fill="#a6e3a1" text-anchor="middle">human-invoked</text>
  <text x="608" y="1094" font-size="11.5" fill="#cdd6f4">uses · gh release + git tag</text>
  <text x="608" y="1120" font-size="11.5" fill="#cdd6f4">gate · — (invocation authorizes)</text>

  <!-- C -->
  <text x="48" y="1188" font-size="19" font-weight="700" fill="#b4befe">C · Roadmap sparring loop (with design + prior art)</text>

  <rect x="510" y="1217" width="420" height="58" rx="12" fill="#cba6f7" fill-opacity="0.16" stroke="#cba6f7" stroke-width="1.5"/>
  <text x="720" y="1252" font-size="14" font-weight="600" fill="#cdd6f4" text-anchor="middle">Raw idea (human) · half-formed, not final</text>
  <line x1="720" y1="1275" x2="720" y2="1305" stroke="#6c7086" stroke-width="1.6" marker-end="url(#ar)"/>

  <rect x="510" y="1307" width="420" height="58" rx="12" fill="#89b4fa" fill-opacity="0.14" stroke="#89b4fa" stroke-width="1.5"/>
  <text x="720" y="1332" font-size="14" font-weight="600" fill="#cdd6f4" text-anchor="middle">Offer (Claude): prior-art research?</text>
  <text x="720" y="1352" font-size="11.5" fill="#a6adc8" text-anchor="middle">quick web search · deep research · none</text>
  <line x1="720" y1="1365" x2="720" y2="1395" stroke="#6c7086" stroke-width="1.6" marker-end="url(#ar)"/>

  <rect x="510" y="1397" width="420" height="58" rx="12" fill="#b4befe" fill-opacity="0.14" stroke="#b4befe" stroke-width="1.5"/>
  <text x="720" y="1422" font-size="14" font-weight="600" fill="#cdd6f4" text-anchor="middle">Findings: adopt / avoid / sources</text>
  <text x="720" y="1442" font-size="11.5" fill="#a6adc8" text-anchor="middle">e.g. Clean-Room · Manus · spec-kit · Mermaid/ADR</text>
  <line x1="720" y1="1455" x2="720" y2="1485" stroke="#6c7086" stroke-width="1.6" marker-end="url(#ar)"/>

  <rect x="540" y="1487" width="360" height="130" rx="14" fill="#fab387" fill-opacity="0.07" stroke="#fab387" stroke-width="1.5"/>
  <text x="720" y="1512" font-size="13" font-weight="700" fill="#fab387" text-anchor="middle">Sparring: challenge · sharpen · design</text>
  <rect x="562" y="1532" width="120" height="60" rx="10" fill="#313244" stroke="#6c7086" stroke-width="1.4"/>
  <text x="622" y="1566" font-size="13" font-weight="600" fill="#cdd6f4" text-anchor="middle">Human</text>
  <rect x="778" y="1532" width="120" height="60" rx="10" fill="#89b4fa" fill-opacity="0.14" stroke="#89b4fa" stroke-width="1.4"/>
  <text x="838" y="1566" font-size="13" font-weight="600" fill="#cdd6f4" text-anchor="middle">Claude</text>
  <text x="720" y="1544" font-size="10" fill="#a6adc8" text-anchor="middle">questions · hints · design variants</text>
  <line x1="776" y1="1556" x2="686" y2="1556" stroke="#6c7086" stroke-width="1.5" marker-end="url(#ar)"/>
  <line x1="684" y1="1574" x2="774" y2="1574" stroke="#6c7086" stroke-width="1.5" marker-end="url(#ar)"/>
  <text x="720" y="1588" font-size="10" fill="#a6adc8" text-anchor="middle">sharpens · decides</text>
  <line x1="720" y1="1617" x2="720" y2="1647" stroke="#6c7086" stroke-width="1.6" marker-end="url(#ar)"/>

  <path d="M540,1527 C 360,1527 330,1422 330,1336 L510,1336" fill="none" stroke="#89dceb" stroke-width="1.6" stroke-dasharray="5 4" marker-end="url(#arb)"/>
  <text x="316" y="1432" font-size="10.5" font-weight="600" fill="#89dceb" text-anchor="middle" transform="rotate(-90 316 1432)">iterate · more research / design</text>

  <rect x="510" y="1649" width="420" height="60" rx="12" fill="#a6e3a1" fill-opacity="0.16" stroke="#a6e3a1" stroke-width="1.5"/>
  <text x="720" y="1674" font-size="13.5" font-weight="600" fill="#cdd6f4" text-anchor="middle">Sharpened roadmap row(s) + prior-art.md</text>
  <text x="720" y="1694" font-size="11.5" fill="#a6adc8" text-anchor="middle">(+ design SVG, if worth drawing) — durable</text>
  <line x1="720" y1="1709" x2="720" y2="1739" stroke="#6c7086" stroke-width="1.6" marker-end="url(#ar)"/>

  <rect x="510" y="1741" width="420" height="54" rx="12" fill="#89b4fa" fill-opacity="0.08" stroke="#89b4fa" stroke-width="1.5" stroke-dasharray="6 4"/>
  <text x="720" y="1766" font-size="13.5" font-weight="600" fill="#cdd6f4" text-anchor="middle">→ /loopkit:plan · spec · issues · milestone(s)</text>
  <text x="720" y="1785" font-size="11" fill="#a6adc8" text-anchor="middle">(later · dependency-ordered)</text>

  <!-- D -->
  <text x="48" y="1827" font-size="19" font-weight="700" fill="#b4befe">D · Core principles &amp; prior-art substrate</text>

  <rect x="48" y="1850" width="770" height="440" rx="12" fill="#1e1e2e" stroke="#313244" stroke-width="1.2"/>
  <text x="66" y="1880" font-size="14" font-weight="700" fill="#fab387">Core principles:</text>
  <text x="66" y="1912" font-size="12.5" fill="#cdd6f4">· roadmap &amp; plan = multi-milestone loops (1..n per run).</text>
  <text x="66" y="1944" font-size="12.5" fill="#cdd6f4">· Exactly two human gates: spec-acceptance · milestone-QA.</text>
  <text x="66" y="1976" font-size="12.5" fill="#cdd6f4">· Foundation edits: in planning, ratified at the gate, never in implement.</text>
  <text x="66" y="2008" font-size="12.5" fill="#cdd6f4">· Design = part of the sparring, in sync with planning (UI + non-UI).</text>
  <text x="66" y="2040" font-size="12.5" fill="#cdd6f4">· Design trigger: "a visualisation clarifies the decision" — optional.</text>
  <text x="66" y="2072" font-size="12.5" fill="#cdd6f4">· Medium-agnostic in the constitution; the project chooses in docs/design.md.</text>
  <text x="66" y="2104" font-size="12.5" fill="#cdd6f4">· loopkit medium: committed SVG (renders in file/rich view, not the raw diff).</text>
  <text x="66" y="2136" font-size="12.5" fill="#cdd6f4">· inception settles the design surface + medium (Step 7b · UI or concept).</text>
  <text x="66" y="2168" font-size="12.5" fill="#cdd6f4">· Proportional ceremony: full-spec / living-spec / track:adhoc — one per change.</text>
  <text x="66" y="2200" font-size="12.5" fill="#cdd6f4">· Durable state = GitHub only — no local DB/JSON/daemon; subscription auth.</text>

  <rect x="838" y="1850" width="554" height="440" rx="12" fill="url(#mv)" stroke="#cba6f7" stroke-width="1.2"/>
  <text x="862" y="1883" font-size="14" font-weight="700" fill="#b4befe">Prior art = substrate</text>
  <text x="862" y="1909" font-size="12" fill="#a6adc8">Every artifact is downstream of research —</text>
  <text x="862" y="1926" font-size="12" fill="#a6adc8">"who has done it well / badly".</text>
  <text x="862" y="1962" font-size="12.5" fill="#cdd6f4">· vision — what &amp; why</text>
  <text x="862" y="1994" font-size="12.5" fill="#cdd6f4">· constitution — binding rules</text>
  <text x="862" y="2026" font-size="12.5" fill="#cdd6f4">· architecture — structure</text>
  <text x="862" y="2058" font-size="12.5" fill="#cdd6f4">· each spec — prior decisions + decision log</text>
  <text x="862" y="2090" font-size="12.5" fill="#cdd6f4">· implementation — OSS checkout when stuck</text>
  <text x="862" y="2122" font-size="12.5" fill="#cdd6f4">· design — "how did others solve X" → variants</text>
  <text x="862" y="2162" font-size="11.5" font-weight="600" fill="#fab387">Research depth per point:</text>
  <text x="862" y="2184" font-size="11.5" fill="#a6adc8">inception (seed) · roadmap (discovery)</text>
  <text x="862" y="2202" font-size="11.5" fill="#a6adc8">plan (impl. + source checkout) · implement (checkout)</text>

  <text x="48" y="2320" font-size="11.5" fill="#6c7086">Committed SVG — inline attributes, no script/foreignObject; renders in GitHub's file/rich view. loopkit's docs/design.md medium (kind: concept).</text>
</svg>
