<svg xmlns="http://www.w3.org/2000/svg" viewBox="0 0 1440 2160" width="1440" height="2160" font-family="system-ui, -apple-system, Segoe UI, Roboto, sans-serif">
  <defs>
    <marker id="ar" viewBox="0 0 10 10" refX="8.5" refY="5" markerWidth="7" markerHeight="7" orient="auto-start-reverse">
      <path d="M0,0 L10,5 L0,10 z" fill="#6c7086"/>
    </marker>
    <marker id="arb" viewBox="0 0 10 10" refX="8.5" refY="5" markerWidth="7" markerHeight="7" orient="auto-start-reverse">
      <path d="M0,0 L10,5 L0,10 z" fill="#89dceb"/>
    </marker>
    <marker id="arp" viewBox="0 0 10 10" refX="8.5" refY="5" markerWidth="7" markerHeight="7" orient="auto-start-reverse">
      <path d="M0,0 L10,5 L0,10 z" fill="#fab387"/>
    </marker>
    <marker id="arm" viewBox="0 0 10 10" refX="8.5" refY="5" markerWidth="7" markerHeight="7" orient="auto-start-reverse">
      <path d="M0,0 L10,5 L0,10 z" fill="#cba6f7"/>
    </marker>
    <linearGradient id="mv" x1="0" y1="0" x2="0" y2="1">
      <stop offset="0" stop-color="#cba6f7" stop-opacity="0.20"/>
      <stop offset="1" stop-color="#b4befe" stop-opacity="0.08"/>
    </linearGradient>
  </defs>

  <rect x="0" y="0" width="1440" height="2160" fill="#181825"/>

  <!-- HEADER -->
  <text x="48" y="58" font-size="30" font-weight="700" fill="#cdd6f4">loopkit — Interpretation &amp; Modell</text>
  <text x="48" y="90" font-size="15" fill="#a6adc8">IST-Zustand der Funktionsweise — keine Statusmarker. Medium: committed SVG unter docs/design/ (kind: concept).</text>

  <!-- A -->
  <text x="48" y="150" font-size="19" font-weight="700" fill="#b4befe">A · Lebenszyklus</text>
  <text x="48" y="174" font-size="11" fill="#a6adc8">Legende:  Pill "loop-bar" = ohne Argument wiederholbar (/loop)   ·   "1× einmalig" = Bootstrap   ·   gestrichelter Pfeil = skill-in-skill (ruft auf / delegiert)   ·   Raute = Human-Gate</text>

  <!-- projekt -->
  <rect x="48" y="330" width="140" height="80" rx="12" fill="#313244" stroke="#6c7086" stroke-width="1.5"/>
  <text x="118" y="366" font-size="14" font-weight="600" fill="#cdd6f4" text-anchor="middle">Projekt</text>
  <text x="118" y="386" font-size="11.5" fill="#a6adc8" text-anchor="middle">(leer / bestehend)</text>
  <line x1="188" y1="370" x2="226" y2="370" stroke="#6c7086" stroke-width="1.6" marker-end="url(#ar)"/>

  <!-- inception -->
  <rect x="230" y="330" width="180" height="80" rx="12" fill="#cba6f7" fill-opacity="0.16" stroke="#cba6f7" stroke-width="1.5"/>
  <rect x="284" y="336" width="72" height="16" rx="8" fill="#cba6f7" fill-opacity="0.20" stroke="#cba6f7" stroke-width="1"/>
  <text x="320" y="348" font-size="9.5" font-weight="600" fill="#cba6f7" text-anchor="middle">1× einmalig</text>
  <text x="320" y="374" font-size="14" font-weight="600" fill="#cdd6f4" text-anchor="middle">/loopkit:inception</text>
  <text x="320" y="393" font-size="11" fill="#a6adc8" text-anchor="middle">Bootstrap</text>
  <text x="320" y="430" font-size="11" fill="#6c7086" text-anchor="middle">→ vision · constitution · architecture · roadmap</text>
  <text x="320" y="446" font-size="11" fill="#6c7086" text-anchor="middle">workflow · design · board · settings · CLAUDE.md</text>
  <text x="431" y="360" font-size="10" fill="#6c7086" text-anchor="middle">loop-ready</text>
  <line x1="410" y1="372" x2="452" y2="372" stroke="#6c7086" stroke-width="1.6" marker-end="url(#ar)"/>

  <!-- delegation arc roadmap -> inception -->
  <path d="M520,330 C 470,300 410,300 362,330" fill="none" stroke="#cba6f7" stroke-width="1.4" stroke-dasharray="5 4" marker-end="url(#arm)"/>
  <text x="441" y="296" font-size="9.5" font-weight="600" fill="#cba6f7" text-anchor="middle">delegiert Steps (DRY)</text>

  <!-- loop container -->
  <rect x="456" y="250" width="936" height="320" rx="18" fill="#ffffff" fill-opacity="0.02" stroke="#6c7086" stroke-width="1.5" stroke-dasharray="7 5"/>
  <text x="474" y="278" font-size="14" font-weight="700" fill="#b4befe">Iterations-Loop — pro Idee · roadmap seedet 1..n Phasen · plan plant 1..n Milestones</text>

  <!-- roadmap -->
  <rect x="474" y="330" width="170" height="80" rx="12" fill="#89b4fa" fill-opacity="0.12" stroke="#89b4fa" stroke-width="1.5" stroke-dasharray="6 4"/>
  <rect x="580" y="336" width="58" height="16" rx="8" fill="#89dceb" fill-opacity="0.20" stroke="#89dceb" stroke-width="1"/>
  <text x="609" y="348" font-size="9.5" font-weight="600" fill="#89dceb" text-anchor="middle">loop-bar</text>
  <text x="551" y="376" font-size="13.5" font-weight="600" fill="#cdd6f4" text-anchor="middle">/loopkit:roadmap</text>
  <text x="551" y="395" font-size="10.5" fill="#a6adc8" text-anchor="middle">Idee-Sparring</text>
  <line x1="644" y1="370" x2="676" y2="370" stroke="#6c7086" stroke-width="1.6" marker-end="url(#ar)"/>

  <!-- plan -->
  <rect x="680" y="330" width="155" height="80" rx="12" fill="#89b4fa" fill-opacity="0.14" stroke="#89b4fa" stroke-width="1.5"/>
  <rect x="742" y="336" width="58" height="16" rx="8" fill="#89dceb" fill-opacity="0.20" stroke="#89dceb" stroke-width="1"/>
  <text x="771" y="348" font-size="9.5" font-weight="600" fill="#89dceb" text-anchor="middle">loop-bar</text>
  <text x="748" y="376" font-size="13.5" font-weight="600" fill="#cdd6f4" text-anchor="middle">/loopkit:plan</text>
  <text x="748" y="395" font-size="10.5" fill="#a6adc8" text-anchor="middle">Spec + Issues</text>

  <!-- gate 1 -->
  <text x="895" y="308" font-size="10.5" font-weight="700" fill="#fab387" text-anchor="middle">spec-acceptance · Gate</text>
  <text x="895" y="322" font-size="10" fill="#fab387" text-anchor="middle">Design + Foundation reviewt HIER</text>
  <line x1="835" y1="370" x2="865" y2="370" stroke="#6c7086" stroke-width="1.6" marker-end="url(#ar)"/>
  <polygon points="895,340 925,370 895,400 865,370" fill="#fab387" fill-opacity="0.18" stroke="#fab387" stroke-width="1.5"/>
  <line x1="925" y1="370" x2="957" y2="370" stroke="#6c7086" stroke-width="1.6" marker-end="url(#ar)"/>

  <!-- implement -->
  <rect x="961" y="330" width="185" height="80" rx="12" fill="#89b4fa" fill-opacity="0.14" stroke="#89b4fa" stroke-width="1.5"/>
  <rect x="1082" y="336" width="58" height="16" rx="8" fill="#89dceb" fill-opacity="0.20" stroke="#89dceb" stroke-width="1"/>
  <text x="1111" y="348" font-size="9.5" font-weight="600" fill="#89dceb" text-anchor="middle">loop-bar</text>
  <text x="1043" y="376" font-size="13.5" font-weight="600" fill="#cdd6f4" text-anchor="middle">/loopkit:implement</text>
  <text x="1043" y="395" font-size="10" fill="#a6adc8" text-anchor="middle">je 1 Milestone · nur ausführen</text>
  <line x1="1146" y1="370" x2="1178" y2="370" stroke="#6c7086" stroke-width="1.6" marker-end="url(#ar)"/>

  <!-- gate 2 -->
  <text x="1208" y="308" font-size="10.5" font-weight="700" fill="#fab387" text-anchor="middle">milestone-QA · Gate</text>
  <text x="1208" y="322" font-size="10" fill="#fab387" text-anchor="middle">(Mensch)</text>
  <polygon points="1208,340 1238,370 1208,400 1178,370" fill="#fab387" fill-opacity="0.18" stroke="#fab387" stroke-width="1.5"/>

  <!-- merged + loop back -->
  <line x1="1208" y1="400" x2="1208" y2="430" stroke="#6c7086" stroke-width="1.6" marker-end="url(#ar)"/>
  <rect x="1148" y="430" width="120" height="44" rx="10" fill="#a6e3a1" fill-opacity="0.16" stroke="#a6e3a1" stroke-width="1.5"/>
  <text x="1208" y="457" font-size="12.5" font-weight="600" fill="#cdd6f4" text-anchor="middle">merged PRs → Done</text>
  <path d="M1208,474 L1208,548 Q1208,554 1202,554 L565,554 Q559,554 559,548 L559,412" fill="none" stroke="#89dceb" stroke-width="1.6" stroke-dasharray="5 4" marker-end="url(#arb)"/>
  <text x="890" y="550" font-size="10.5" font-weight="600" fill="#89dceb" text-anchor="middle">nächste Idee</text>

  <!-- design node (used-within) -->
  <text x="700" y="450" font-size="10" font-weight="600" fill="#fab387" text-anchor="middle">optional · ruft auf</text>
  <line x1="585" y1="410" x2="640" y2="470" stroke="#fab387" stroke-width="1.5" stroke-dasharray="5 4" marker-end="url(#arp)"/>
  <line x1="757" y1="410" x2="745" y2="470" stroke="#fab387" stroke-width="1.5" stroke-dasharray="5 4" marker-end="url(#arp)"/>
  <rect x="600" y="474" width="200" height="54" rx="12" fill="#fab387" fill-opacity="0.07" stroke="#fab387" stroke-width="1.5" stroke-dasharray="6 4"/>
  <text x="700" y="498" font-size="13" font-weight="600" fill="#cdd6f4" text-anchor="middle">/loopkit:design</text>
  <text x="700" y="516" font-size="10" fill="#a6adc8" text-anchor="middle">optional · used-within (UI + Konzept)</text>

  <!-- foundation note -->
  <text x="456" y="594" font-size="12.5" font-weight="600" fill="#fab387">Foundation-Edits (vision · constitution · architecture — z.B. React→Vue): entworfen in roadmap/plan, ratifiziert am spec-acceptance-Gate — NIE in implement.</text>

  <!-- fast lane -->
  <rect x="456" y="614" width="936" height="72" rx="14" fill="#94e2d5" fill-opacity="0.06" stroke="#94e2d5" stroke-width="1.5" stroke-dasharray="7 5"/>
  <text x="474" y="636" font-size="12" font-weight="700" fill="#94e2d5">Fast-Lane · track:adhoc — überspringt roadmap + plan</text>
  <rect x="474" y="650" width="100" height="30" rx="8" fill="#313244" stroke="#6c7086" stroke-width="1.4"/>
  <text x="524" y="670" font-size="12" fill="#cdd6f4" text-anchor="middle">Bug / QoL</text>
  <line x1="574" y1="665" x2="602" y2="665" stroke="#6c7086" stroke-width="1.6" marker-end="url(#ar)"/>
  <rect x="606" y="650" width="140" height="30" rx="8" fill="#94e2d5" fill-opacity="0.10" stroke="#94e2d5" stroke-width="1.4"/>
  <text x="676" y="670" font-size="12" fill="#cdd6f4" text-anchor="middle">track:adhoc Issue</text>
  <line x1="746" y1="665" x2="774" y2="665" stroke="#6c7086" stroke-width="1.6" marker-end="url(#ar)"/>
  <rect x="778" y="650" width="210" height="30" rx="8" fill="#89b4fa" fill-opacity="0.14" stroke="#89b4fa" stroke-width="1.4"/>
  <text x="883" y="670" font-size="12" fill="#cdd6f4" text-anchor="middle">/loopkit:implement (direkt)</text>
  <line x1="988" y1="665" x2="1016" y2="665" stroke="#6c7086" stroke-width="1.6" marker-end="url(#ar)"/>
  <rect x="1020" y="650" width="100" height="30" rx="8" fill="#a6e3a1" fill-opacity="0.16" stroke="#a6e3a1" stroke-width="1.4"/>
  <text x="1070" y="670" font-size="12" fill="#cdd6f4" text-anchor="middle">PR → merge</text>

  <!-- state strip -->
  <rect x="48" y="704" width="1344" height="40" rx="10" fill="#a6e3a1" fill-opacity="0.12" stroke="#a6e3a1" stroke-width="1.5"/>
  <text x="720" y="729" font-size="13" font-weight="600" fill="#cdd6f4" text-anchor="middle">Durable State: GitHub Issues · Milestones · Project Board · PRs — kein lokaler DB/JSON/Daemon</text>

  <!-- B -->
  <text x="48" y="782" font-size="19" font-weight="700" fill="#b4befe">B · Skills — loop-bar &amp; skill-in-skill</text>

  <!-- card 1 inception -->
  <rect x="48" y="806" width="256" height="162" rx="12" fill="#1e1e2e" stroke="#313244" stroke-width="1.2"/>
  <rect x="48" y="806" width="256" height="4" rx="2" fill="#cba6f7"/>
  <text x="64" y="838" font-size="14" font-weight="700" fill="#cba6f7">/loopkit:inception</text>
  <text x="64" y="858" font-size="11.5" fill="#a6adc8">Bootstrap</text>
  <rect x="64" y="870" width="80" height="17" rx="8" fill="#cba6f7" fill-opacity="0.18" stroke="#cba6f7" stroke-width="1"/>
  <text x="104" y="882" font-size="10" font-weight="600" fill="#cba6f7" text-anchor="middle">1× einmalig</text>
  <text x="64" y="912" font-size="11.5" fill="#cdd6f4">nutzt · —</text>
  <text x="64" y="938" font-size="11.5" fill="#cdd6f4">Gate · Dialog</text>

  <!-- card 2 roadmap -->
  <rect x="320" y="806" width="256" height="162" rx="12" fill="#1e1e2e" stroke="#89b4fa" stroke-width="1.2" stroke-dasharray="6 4"/>
  <rect x="320" y="806" width="256" height="4" rx="2" fill="#89b4fa"/>
  <text x="336" y="838" font-size="14" font-weight="700" fill="#89b4fa">/loopkit:roadmap</text>
  <text x="336" y="858" font-size="11.5" fill="#a6adc8">Idee-Sparring + Design</text>
  <rect x="336" y="870" width="66" height="17" rx="8" fill="#89dceb" fill-opacity="0.18" stroke="#89dceb" stroke-width="1"/>
  <text x="369" y="882" font-size="10" font-weight="600" fill="#89dceb" text-anchor="middle">loop-bar</text>
  <text x="336" y="912" font-size="11.5" fill="#cdd6f4">nutzt · inception-Steps · design</text>
  <text x="336" y="938" font-size="11.5" fill="#cdd6f4">Gate · — (Sparring)</text>

  <!-- card 3 plan -->
  <rect x="592" y="806" width="256" height="162" rx="12" fill="#1e1e2e" stroke="#313244" stroke-width="1.2"/>
  <rect x="592" y="806" width="256" height="4" rx="2" fill="#89b4fa"/>
  <text x="608" y="838" font-size="14" font-weight="700" fill="#89b4fa">/loopkit:plan</text>
  <text x="608" y="858" font-size="11.5" fill="#a6adc8">Producer</text>
  <rect x="608" y="870" width="66" height="17" rx="8" fill="#89dceb" fill-opacity="0.18" stroke="#89dceb" stroke-width="1"/>
  <text x="641" y="882" font-size="10" font-weight="600" fill="#89dceb" text-anchor="middle">loop-bar</text>
  <text x="608" y="912" font-size="11.5" fill="#cdd6f4">nutzt · design (optional)</text>
  <text x="608" y="938" font-size="11.5" fill="#cdd6f4">Gate · spec-acceptance</text>

  <!-- card 4 implement -->
  <rect x="864" y="806" width="256" height="162" rx="12" fill="#1e1e2e" stroke="#313244" stroke-width="1.2"/>
  <rect x="864" y="806" width="256" height="4" rx="2" fill="#89b4fa"/>
  <text x="880" y="838" font-size="14" font-weight="700" fill="#89b4fa">/loopkit:implement</text>
  <text x="880" y="858" font-size="11.5" fill="#a6adc8">Orchestrator</text>
  <rect x="880" y="870" width="66" height="17" rx="8" fill="#89dceb" fill-opacity="0.18" stroke="#89dceb" stroke-width="1"/>
  <text x="913" y="882" font-size="10" font-weight="600" fill="#89dceb" text-anchor="middle">loop-bar</text>
  <text x="880" y="912" font-size="11.5" fill="#cdd6f4">nutzt · Subagents (in-session)</text>
  <text x="880" y="938" font-size="11.5" fill="#cdd6f4">Gate · milestone-QA</text>

  <!-- card 5 design -->
  <rect x="1136" y="806" width="256" height="162" rx="12" fill="#1e1e2e" stroke="#313244" stroke-width="1.2"/>
  <rect x="1136" y="806" width="256" height="4" rx="2" fill="#fab387"/>
  <text x="1152" y="838" font-size="14" font-weight="700" fill="#fab387">/loopkit:design</text>
  <text x="1152" y="858" font-size="11.5" fill="#a6adc8">optional · UI + Konzept</text>
  <rect x="1152" y="870" width="86" height="17" rx="8" fill="#fab387" fill-opacity="0.18" stroke="#fab387" stroke-width="1"/>
  <text x="1195" y="882" font-size="10" font-weight="600" fill="#fab387" text-anchor="middle">used-within</text>
  <text x="1152" y="912" font-size="11.5" fill="#cdd6f4">nutzt · — (v. roadmap/plan)</text>
  <text x="1152" y="938" font-size="11.5" fill="#cdd6f4">Gate · am spec-acceptance</text>

  <!-- C -->
  <text x="48" y="1006" font-size="19" font-weight="700" fill="#b4befe">C · Roadmap-Sparring-Loop (mit Design + Prior-Art)</text>

  <rect x="510" y="1035" width="420" height="58" rx="12" fill="#cba6f7" fill-opacity="0.16" stroke="#cba6f7" stroke-width="1.5"/>
  <text x="720" y="1070" font-size="14" font-weight="600" fill="#cdd6f4" text-anchor="middle">Rohe Idee (Mensch) · halb-durchdacht, nicht final</text>
  <line x1="720" y1="1093" x2="720" y2="1123" stroke="#6c7086" stroke-width="1.6" marker-end="url(#ar)"/>

  <rect x="510" y="1125" width="420" height="58" rx="12" fill="#89b4fa" fill-opacity="0.14" stroke="#89b4fa" stroke-width="1.5"/>
  <text x="720" y="1150" font-size="14" font-weight="600" fill="#cdd6f4" text-anchor="middle">Angebot (Claude): Prior-Art-Recherche?</text>
  <text x="720" y="1170" font-size="11.5" fill="#a6adc8" text-anchor="middle">kurze WebSearch · Deep-Research · keine</text>
  <line x1="720" y1="1183" x2="720" y2="1213" stroke="#6c7086" stroke-width="1.6" marker-end="url(#ar)"/>

  <rect x="510" y="1215" width="420" height="58" rx="12" fill="#b4befe" fill-opacity="0.14" stroke="#b4befe" stroke-width="1.5"/>
  <text x="720" y="1240" font-size="14" font-weight="600" fill="#cdd6f4" text-anchor="middle">Befunde: adopt / avoid / Quellen</text>
  <text x="720" y="1260" font-size="11.5" fill="#a6adc8" text-anchor="middle">z.B. Clean-Room · Manus · spec-kit · Mermaid/ADR</text>
  <line x1="720" y1="1273" x2="720" y2="1303" stroke="#6c7086" stroke-width="1.6" marker-end="url(#ar)"/>

  <rect x="540" y="1305" width="360" height="130" rx="14" fill="#fab387" fill-opacity="0.07" stroke="#fab387" stroke-width="1.5"/>
  <text x="720" y="1330" font-size="13" font-weight="700" fill="#fab387" text-anchor="middle">Sparring: challengen · schärfen · designen</text>
  <rect x="562" y="1350" width="120" height="60" rx="10" fill="#313244" stroke="#6c7086" stroke-width="1.4"/>
  <text x="622" y="1384" font-size="13" font-weight="600" fill="#cdd6f4" text-anchor="middle">Mensch</text>
  <rect x="778" y="1350" width="120" height="60" rx="10" fill="#89b4fa" fill-opacity="0.14" stroke="#89b4fa" stroke-width="1.4"/>
  <text x="838" y="1384" font-size="13" font-weight="600" fill="#cdd6f4" text-anchor="middle">Claude</text>
  <text x="720" y="1362" font-size="10" fill="#a6adc8" text-anchor="middle">Fragen · Hinweise · Design-Varianten</text>
  <line x1="776" y1="1374" x2="686" y2="1374" stroke="#6c7086" stroke-width="1.5" marker-end="url(#ar)"/>
  <line x1="684" y1="1392" x2="774" y2="1392" stroke="#6c7086" stroke-width="1.5" marker-end="url(#ar)"/>
  <text x="720" y="1406" font-size="10" fill="#a6adc8" text-anchor="middle">schärft · entscheidet</text>
  <line x1="720" y1="1435" x2="720" y2="1465" stroke="#6c7086" stroke-width="1.6" marker-end="url(#ar)"/>

  <path d="M540,1345 C 360,1345 330,1240 330,1154 L510,1154" fill="none" stroke="#89dceb" stroke-width="1.6" stroke-dasharray="5 4" marker-end="url(#arb)"/>
  <text x="316" y="1250" font-size="10.5" font-weight="600" fill="#89dceb" text-anchor="middle" transform="rotate(-90 316 1250)">iterieren · mehr Recherche / Design</text>

  <rect x="510" y="1467" width="420" height="60" rx="12" fill="#a6e3a1" fill-opacity="0.16" stroke="#a6e3a1" stroke-width="1.5"/>
  <text x="720" y="1492" font-size="13.5" font-weight="600" fill="#cdd6f4" text-anchor="middle">Geschärfte Roadmap-Zeile(n) + prior-art.md</text>
  <text x="720" y="1512" font-size="11.5" fill="#a6adc8" text-anchor="middle">(+ Design-SVG, wenn zeichnenswert) — durable</text>
  <line x1="720" y1="1527" x2="720" y2="1557" stroke="#6c7086" stroke-width="1.6" marker-end="url(#ar)"/>

  <rect x="510" y="1559" width="420" height="54" rx="12" fill="#89b4fa" fill-opacity="0.08" stroke="#89b4fa" stroke-width="1.5" stroke-dasharray="6 4"/>
  <text x="720" y="1584" font-size="13.5" font-weight="600" fill="#cdd6f4" text-anchor="middle">→ /loopkit:plan · Spec · Issues · Milestone(s)</text>
  <text x="720" y="1603" font-size="11" fill="#a6adc8" text-anchor="middle">(später · dependency-geordnet)</text>

  <!-- D -->
  <text x="48" y="1645" font-size="19" font-weight="700" fill="#b4befe">D · Kernprinzipien &amp; Prior-Art-Substrat</text>

  <rect x="48" y="1668" width="770" height="440" rx="12" fill="#1e1e2e" stroke="#313244" stroke-width="1.2"/>
  <text x="66" y="1698" font-size="14" font-weight="700" fill="#fab387">Kernprinzipien:</text>
  <text x="66" y="1730" font-size="12.5" fill="#cdd6f4">· roadmap &amp; plan = Multi-Milestone-Loops (1..n pro Lauf).</text>
  <text x="66" y="1762" font-size="12.5" fill="#cdd6f4">· Genau zwei Human-Gates: spec-acceptance · milestone-QA.</text>
  <text x="66" y="1794" font-size="12.5" fill="#cdd6f4">· Foundation-Edits: in Planung, ratifiziert am Gate, nie in implement.</text>
  <text x="66" y="1826" font-size="12.5" fill="#cdd6f4">· Design = Teil des Sparrings, synchron mit Planung (UI + Nicht-UI).</text>
  <text x="66" y="1858" font-size="12.5" fill="#cdd6f4">· Design-Trigger: "Visualisierung klärt die Entscheidung" — optional.</text>
  <text x="66" y="1890" font-size="12.5" fill="#cdd6f4">· Medium-agnostisch in constitution; Projekt wählt in docs/design.md.</text>
  <text x="66" y="1922" font-size="12.5" fill="#cdd6f4">· loopkit-Medium: committed SVG (rendert in File-/Rich-View, nicht im rohen Diff).</text>
  <text x="66" y="1954" font-size="12.5" fill="#cdd6f4">· inception klärt Design-Surface + Medium (Step 7b · UI oder Konzept).</text>
  <text x="66" y="1986" font-size="12.5" fill="#cdd6f4">· Proportionale Ceremony: full-spec / living-spec / track:adhoc — eine pro Change.</text>
  <text x="66" y="2018" font-size="12.5" fill="#cdd6f4">· Durable State nur GitHub — kein lokaler DB/JSON/Daemon; Subscription-Auth.</text>

  <rect x="838" y="1668" width="554" height="440" rx="12" fill="url(#mv)" stroke="#cba6f7" stroke-width="1.2"/>
  <text x="862" y="1701" font-size="14" font-weight="700" fill="#b4befe">Prior-Art = Substrat</text>
  <text x="862" y="1727" font-size="12" fill="#a6adc8">Jedes Artefakt ist downstream einer Recherche —</text>
  <text x="862" y="1744" font-size="12" fill="#a6adc8">"wer hat es schon gut / schlecht gemacht".</text>
  <text x="862" y="1780" font-size="12.5" fill="#cdd6f4">· vision — was &amp; warum</text>
  <text x="862" y="1812" font-size="12.5" fill="#cdd6f4">· constitution — bindende Regeln</text>
  <text x="862" y="1844" font-size="12.5" fill="#cdd6f4">· architecture — Struktur</text>
  <text x="862" y="1876" font-size="12.5" fill="#cdd6f4">· jede Spec — Prior-decisions + Decision-log</text>
  <text x="862" y="1908" font-size="12.5" fill="#cdd6f4">· Implementierung — OSS-Checkout, wenn's hakt</text>
  <text x="862" y="1940" font-size="12.5" fill="#cdd6f4">· Design — "wie haben andere X gelöst" → Varianten</text>
  <text x="862" y="1980" font-size="11.5" font-weight="600" fill="#fab387">Recherche-Tiefe pro Punkt:</text>
  <text x="862" y="2002" font-size="11.5" fill="#a6adc8">inception (Seed) · roadmap (Discovery)</text>
  <text x="862" y="2020" font-size="11.5" fill="#a6adc8">plan (Impl. + Source-Checkout) · implement (Checkout)</text>

  <text x="48" y="2138" font-size="11.5" fill="#6c7086">Committed SVG — inline-Attribute, kein Script/foreignObject; rendert in GitHubs File-/Rich-View. loopkits docs/design.md-Medium (kind: concept).</text>
</svg>
